<?xml version="1.0" encoding="UTF-8"?>
<svg width="400" height="190" version="1.0" xmlns="http://www.w3.org/2000/svg">
 <g transform="matrix(.18956 0 0 .18956 -70.717 -8.0252)" fill="#a74b00" fill-opacity=".5">
  <path d="m1401.7 912.51c-2.75-0.2008-13.775-0.84166-24.5-1.4241-22.418-1.2175-54.866-4.4071-65.334-6.4222-11.566-2.2263-69.707-18.865-103.17-29.523-4.95-1.5768-13.5-4.2399-19-5.918-9.9298-3.0297-61.384-19.203-81.5-25.618-80.038-25.523-91.031-29.127-92.093-30.189-0.6887-0.68869-0.6327-3.2205 0.1735-7.8504 2.2303-12.807-0.6121-39.738-7.8059-73.957-1.9656-9.35-3.7808-18.462-4.0338-20.25l-0.46-3.25h4.5101c22.259 0 105.06 22.186 215.21 57.661 24.932 8.0299 40.122 11.804 73.5 18.262 60.927 11.789 98.122 15.551 153.5 15.529 49.707-0.0201 66.537-1.9281 106.17-12.037 25.005-6.377 33.089-8.8627 48.183-14.815 13.166-5.1925 12.999-3.6659-0.3127 2.8528-19.198 9.4013-49.923 17.992-79.043 22.101-6.6 0.93132-12.651 2.0423-13.446 2.4688-4.4399 2.3812 27.18 2.3195 46.446-0.0907 40.786-5.1023 71.024-19.941 88.506-43.433 6.8836-9.2496 14.012-24.959 13.971-30.787-0.022-3.0562-0.1811-2.9202-3.268 2.787-1.7849 3.3-4.6463 8.025-6.3585 10.5-3.2363 4.6779-20.652 22-22.119 22-0.4605 0-5.3357-4.3875-10.834-9.75-31.101-30.335-86.434-57.879-156.9-78.104-37.707-10.823-71.378-17.858-125-26.119-144.7-22.292-247.77-67.375-287.11-125.59-3.3228-4.9167-8.1784-12.053-10.79-15.859-5.671-8.2635-10.496-17.705-13.584-26.58-3.1386-9.0212-3.9371-26.878-1.6099-36 5.2322-20.509 19.978-39.134 44.772-56.553l7.6814-5.3962-4.7903-9.4089c-8.0483-15.808-12.042-35.755-10.017-50.033 5.0539-35.635 34.012-72.176 77.205-97.422 41.584-24.306 98.191-40.021 168.24-46.707 50.982-4.866 135.21-4.4297 208 1.0774 93.711 7.09 166.42 22.506 207 43.888 5.5 2.8981 13.663 6.9113 18.139 8.9181 28.067 12.582 59.49 35.115 76.451 54.821 8.8654 10.301 17.998 24.684 23.059 36.315l4.3509 10-0.081 16c-0.066 13.004-0.476 17.437-2.1901 23.675-2.9876 10.873-7.5943 21.481-13.72 31.595l-5.2873 8.7294 8.1662 8c9.0931 8.908 14.541 16.568 18.359 25.814 3.3957 8.2234 4.2753 24.067 1.8709 33.698-10.282 41.183-69.583 90.416-140.7 116.82-25.023 9.2884-49.746 16.272-80.28 22.678-8.7271 1.8309-16.301 3.7622-16.83 4.2917-0.617 0.61698 3.6451 4.0101 11.867 9.4479 14.968 9.8991 19.48 14.142 26.76 25.166 15.186 22.997 19.748 47.217 13.295 70.588-3.7584 13.612-4.6279 21.775-5.744 53.921-1.026 29.554-2.0085 38.941-4.9789 47.575-4.1696 12.119-9.7212 19.859-26.501 36.948-23.059 23.483-64.028 37.02-132 43.614-10.661 1.0343-83.899 2.0808-94 1.3433zm192.5-298.59c-7.5947-6.4492-50.741-24.383-98.5-40.942-11-3.8139-20.927-7.3209-22.06-7.7932-6.3081-2.6305-41.572-12.91-60.278-17.571-40.027-9.9739-89.594-20.559-114.66-24.486-74.219-11.628-157.07-41.25-226.8-81.088-9.7885-5.5926-18.037-9.9287-18.33-9.6357-2.1401 2.1401 15.186 17.654 32.627 29.215 57.967 38.423 146.16 66.469 270.5 86.022 27.568 4.3352 71.997 13.839 112.9 24.15 26.03 6.562 50.894 15.232 111.6 38.913 7.425 2.8964 13.95 5.2827 14.5 5.3029 0.55 0.0202-0.125-0.91863-1.5-2.0862zm7.1206-37.755c10.034-1.3266 18-3.0636 25.391-5.5367 64.966-21.736 114.8-55.247 141.47-95.132 6.8647-10.266 8.7322-14.006 7.5725-15.166-0.3452-0.34516-6.5737 5.2606-13.841 12.457-15.839 15.685-19.229 18.718-32.21 28.824-37.044 28.84-77.768 48.941-121.5 59.974-21.766 5.4911-49.57 9.5224-65.674 9.5224-12.747 0-5.4228 2.6534 13.674 4.9538 20.347 2.451 27.236 2.4666 45.121 0.10189zm-86.121-66.081c70.185-3.133 121.99-12.162 181-31.543 32.184-10.571 49.228-17.338 66.95-26.581 37.444-19.53 60.91-43.228 67.679-68.351 2.6701-9.9096 1.1895-11.51-2.5857-2.7947-14.09 32.528-54.21 59.983-119.47 81.757-41.562 13.868-105.66 24.545-178.08 29.666-37.974 2.685-107.28 0.98717-148.27-3.6324-127.63-14.383-238.93-53.504-287.8-101.15-9.9992-9.7505-15.459-17.109-20.514-27.648-7.5365-15.713-8.7402-32.053-3.6424-49.444 1.3301-4.5375 2.2402-8.25 2.0224-8.25s-1.4927 2.3625-2.8332 5.25c-8.1646 17.587-6.8839 39.099 3.4825 58.495 16.03 29.993 58.438 62.236 115.33 87.685 23.691 10.597 40.274 16.352 74.716 25.927 57.86 16.086 116.95 26.119 174.61 29.646 32.173 1.9682 50.054 2.1929 77.389 0.97268zm170.71-69.225c3.9219-4.2892 5.2912-8.3808 5.2912-15.81 0-6.0894-0.4635-8.0293-3.1005-12.977-7.8904-14.804-27.111-28.008-53.718-36.902-25.681-8.5849-52.521-12.396-87.681-12.452-25.264-0.0398-30.342 0.4074-51.5 4.5349-38.33 7.4776-63.596 24.853-65.694 45.178-0.5968 5.7822 2.1504 13.972 5.7923 17.268 2.8631 2.591 3.302 1.1328 1.3909-4.6209-5.2533-15.816 7.3245-29.441 36.768-39.828 18.371-6.4809 36.93-9.5842 66.601-11.137 58.859-3.0798 105.63 8.5325 135.46 33.629 13.408 11.282 14.885 18.704 6.8921 34.617-0.824 1.6405 1.5627 0.6172 3.4987-1.5zm-321.34-52c1.6941-6.3216-1.1833-16.998-6.1824-22.939-6.1896-7.356-24.902-17.122-42.733-22.303-28.879-8.3907-68.739-9.6528-105.92-3.3536-24.795 4.2012-48.318 14.761-57.951 26.015-3.9974 4.6701-6.6594 12.003-5.8653 16.157 0.7051 3.6884 1.6678 3.3532 3.7721-1.3134 4.6079-10.218 20.425-20.423 39.506-25.488 17.692-4.6963 29.404-5.9365 56.5-5.9824 26.51-0.0449 37.094 0.87024 58.914 5.0939 34.576 6.6928 52.324 16.965 56.701 32.817 1.1209 4.0597 2.3801 4.5612 3.255 1.2965zm239.93-63c-7.191-7.3532-9.6707-12.515-9.0608-18.862 0.4112-4.2792 1.1359-5.6946 4.8731-9.5164 8.2824-8.47 23.374-13.933 49.89-18.06 16.307-2.5379 53.175-2.5245 68.368 0.0248 20.489 3.438 33.526 7.5162 48.053 15.031 11.906 6.1592 22.949 15.907 25.034 22.097 2.0599 6.1156 3.5455 5.6187 3.5455-1.1859 0-4.7625-0.5476-6.751-2.8657-10.406-9.139-14.411-39.765-28.391-73.134-33.383-32.996-4.9371-67.14-3.3684-97.96 4.5005-22.298 5.6931-39.04 18.235-39.04 29.246 0 8.1798 7.398 16.687 20.5 23.574 6.6261 3.4827 7.215 2.4805 1.7976-3.0591zm-455.08-44.378c-9.5524-8.0086-9.7504-16.776-0.6164-27.289 15.004-17.269 80.539-27.426 132.78-20.578 34.785 4.5599 55.454 13.932 63.259 28.685 1.9102 3.6105 2.4575 13.977 1.0327 19.56-1.1731 4.5965 0.472 4.1335 5.0125-1.4108 3.4335-4.1926 3.8138-5.2263 3.7855-10.289-0.1127-20.157-29.317-36.074-76.268-41.566-14.825-1.7342-53.848-1.9929-69.345-0.45977-27.599 2.7304-49.134 10.096-63.274 21.643-11.761 9.604-15.436 18.978-10.544 26.894 2.3597 3.818 10.834 8.4483 15.408 8.419l3.0536-0.0196zm435.57-24.082c5.1085-2.4158 13.319-10.321 15.34-14.769 2.3596-5.1943 2.3317-12.909-0.066-18.189-9.5084-20.942-56.144-34.306-121.06-34.692-33.496-0.19931-52.444 2.978-70.5 11.823-19.637 9.6188-27.491 21.794-21.559 33.422 3.5395 6.9378 14.014 14.022 25.233 17.065 6.7286 1.8252 7.6092 0.95203 2.6393-2.6171-7.4763-5.3691-15.42-14.077-16.681-18.285-2.5304-8.4458 4.1065-16.302 20.254-23.976 10.302-4.8956 23.091-8.9231 32.094-10.107 12.893-1.6949 48.294-2.296 63.02-1.0701 34.045 2.834 58.884 10.003 71.162 20.539 5.4666 4.6911 9.3382 12.487 9.3382 18.803 0 6.333-2.7683 11.611-8.7357 16.656-2.6203 2.2151-5.8893 4.977-7.2643 6.1374l-2.5 2.1099 3-0.64681c1.65-0.35574 4.4802-1.3468 6.2894-2.2023z" fill="#a74b00" fill-opacity=".5"/>
 </g>
</svg>
