<?xml version="1.0" encoding="UTF-8"?>
<svg width="66" height="21" version="1.1" viewBox="0 0 66 21" xmlns="http://www.w3.org/2000/svg">
 <path d="m11.5 0c-6.371 0-11.5 4.683-11.5 10.5s5.129 10.5 11.5 10.5h43c6.371 0 11.5-4.683 11.5-10.5s-5.129-10.5-11.5-10.5h-43zm-1.0098 1.5a9 9 0 0 1 0.009766 0 9 9 0 0 1 9 9 9 9 0 0 1-9 9 9 9 0 0 1-9-9 9 9 0 0 1 8.9902-9zm23.404 3.3203c0.48 0 0.93271 0.048531 1.3594 0.14453 0.43733 0.085333 0.82168 0.24084 1.1523 0.46484 0.33067 0.21333 0.5912 0.50061 0.7832 0.86328 0.20267 0.352 0.30469 0.79479 0.30469 1.3281 0 0.66133-0.13868 1.2061-0.41602 1.6328-0.27733 0.416-0.63493 0.72507-1.0723 0.92773 0.544 0.21333 0.99175 0.53728 1.3438 0.97461s0.52734 1.0406 0.52734 1.8086c0 0.576-0.095109 1.0624-0.28711 1.457-0.18133 0.39467-0.44382 0.71861-0.78516 0.97461-0.34133 0.24533-0.75047 0.42759-1.2305 0.54492-0.46933 0.10667-0.9874 0.16016-1.5527 0.16016-0.37333 0-0.76264-0.021786-1.168-0.064453-0.40533-0.042666-0.82634-0.10607-1.2637-0.19141v-10.752c0.37333-0.085333 0.75272-0.15069 1.1367-0.19336 0.39467-0.053333 0.78397-0.080078 1.168-0.080078zm8.3438 0c0.48 0 0.93271 0.048531 1.3594 0.14453 0.43733 0.085333 0.82168 0.24084 1.1523 0.46484 0.33067 0.21333 0.5912 0.50061 0.7832 0.86328 0.20267 0.352 0.30469 0.79479 0.30469 1.3281 0 0.66133-0.13868 1.2061-0.41602 1.6328-0.27733 0.416-0.63493 0.72507-1.0723 0.92773 0.544 0.21333 0.99175 0.53728 1.3438 0.97461s0.52734 1.0406 0.52734 1.8086c0 0.576-0.095109 1.0624-0.28711 1.457-0.18133 0.39467-0.44382 0.71861-0.78516 0.97461-0.34133 0.24533-0.75047 0.42759-1.2305 0.54492-0.46933 0.10667-0.9874 0.16016-1.5527 0.16016-0.37333 0-0.76264-0.021786-1.168-0.064453-0.40533-0.042666-0.82634-0.10607-1.2637-0.19141v-10.752c0.37333-0.085333 0.75272-0.15069 1.1367-0.19336 0.39467-0.053333 0.78397-0.080078 1.168-0.080078zm-19.867 0.11328h1.4395v4.6875h3.6484v-4.6875h1.4395v11.088h-1.4395v-5.1523h-3.6484v5.1523h-1.4395v-11.088zm24.535 0h6.3691v1.2324h-2.4648v9.8555h-1.4395v-9.8555h-2.4648v-1.2324zm7.3789 0h1.5039c0.13867 0.82133 0.29222 1.6465 0.46289 2.4785 0.17067 0.82133 0.35292 1.6336 0.54492 2.4336 0.192 0.8 0.38417 1.5786 0.57617 2.3359 0.20267 0.74667 0.3998 1.455 0.5918 2.127 0.192-0.672 0.38417-1.3803 0.57617-2.127 0.20267-0.75733 0.3998-1.5359 0.5918-2.3359 0.192-0.8 0.3723-1.6123 0.54297-2.4336 0.17067-0.832 0.32618-1.6572 0.46484-2.4785h1.4551c-0.23467 1.1733-0.46846 2.261-0.70312 3.2637-0.23467 0.992-0.47537 1.936-0.7207 2.832-0.23467 0.896-0.47342 1.7548-0.71875 2.5762-0.24533 0.81067-0.491 1.616-0.73633 2.416h-1.5527c-0.24533-0.8-0.49099-1.6053-0.73633-2.416-0.24533-0.82133-0.49099-1.6802-0.73633-2.5762-0.23467-0.896-0.46846-1.84-0.70312-2.832-0.23467-1.0027-0.46846-2.0903-0.70312-3.2637zm-20.279 1.0879c-0.16 0-0.32543 0.0049583-0.49609 0.015625-0.16 0.010667-0.32047 0.027495-0.48047 0.048828v3.5664h0.99219c1.3227 0 1.9844-0.59635 1.9844-1.791 0-0.37333-0.058448-0.67744-0.17578-0.91211-0.10667-0.24533-0.25031-0.43255-0.43164-0.56055-0.18133-0.13867-0.39529-0.23378-0.64063-0.28711-0.23467-0.053333-0.48529-0.080078-0.75195-0.080078zm8.3438 0c-0.16 0-0.32543 0.0049583-0.49609 0.015625-0.16 0.010667-0.32047 0.027495-0.48047 0.048828v3.5664h0.99219c1.3227 0 1.9844-0.59635 1.9844-1.791 0-0.37333-0.058448-0.67744-0.17578-0.91211-0.10667-0.24533-0.25031-0.43255-0.43164-0.56055-0.18133-0.13867-0.39529-0.23378-0.64063-0.28711-0.23467-0.053333-0.48529-0.080078-0.75195-0.080078zm-9.3203 4.7832v4c0.20267 0.032 0.3998 0.058744 0.5918 0.080078 0.20267 0.021333 0.3998 0.033203 0.5918 0.033203 0.29867 0 0.58294-0.033656 0.84961-0.097657 0.26667-0.064 0.4955-0.16903 0.6875-0.31836 0.20267-0.14933 0.35622-0.35338 0.46289-0.60938 0.11733-0.26667 0.17578-0.59061 0.17578-0.97461 0-0.66133-0.1803-1.1794-0.54297-1.5527-0.352-0.37333-0.90673-0.56055-1.6641-0.56055h-1.1523zm8.3438 0v4c0.20267 0.032 0.3998 0.058744 0.5918 0.080078 0.20267 0.021333 0.3998 0.033203 0.5918 0.033203 0.29867 0 0.58294-0.033656 0.84961-0.097657 0.26667-0.064 0.4955-0.16903 0.6875-0.31836 0.20267-0.14933 0.35622-0.35338 0.46289-0.60938 0.11733-0.26667 0.17578-0.59061 0.17578-0.97461 0-0.66133-0.1803-1.1794-0.54297-1.5527-0.352-0.37333-0.90673-0.56055-1.6641-0.56055h-1.1523z" fill="#fff" fill-opacity=".2"/>
</svg>
