<?xml version="1.0" encoding="UTF-8"?>
<svg width="45" height="21" version="1.1" viewBox="0 0 45 21" xmlns="http://www.w3.org/2000/svg">
 <path d="m5 0c-2.77 0-5 2.23-5 5v11c0 2.77 2.23 5 5 5h35c2.77 0 5-2.23 5-5v-11c0-2.77-2.23-5-5-5h-35zm33.76 4.6738c0.46933 0 0.90717 0.063406 1.3125 0.19141 0.40533 0.11733 0.73619 0.26789 0.99219 0.44922l-0.43164 1.1992c-0.256-0.17067-0.53336-0.30935-0.83203-0.41602-0.288-0.10667-0.62381-0.16016-1.0078-0.16016-0.85333 0-1.4734 0.3576-1.8574 1.0723-0.384 0.704-0.57422 1.8016-0.57422 3.2949 0 1.504 0.20209 2.662 0.60742 3.4727 0.40533 0.81067 1.067 1.2168 1.9844 1.2168 0.43733 0 0.78802-0.05349 1.0547-0.16016 0.27733-0.10667 0.54478-0.24535 0.80078-0.41602l0.40039 1.1348c-0.24533 0.192-0.57123 0.35743-0.97656 0.49609-0.39467 0.13867-0.85233 0.20898-1.375 0.20898-1.3013 1e-6 -2.2989-0.48636-2.9922-1.457-0.69333-0.97067-1.041-2.4694-1.041-4.4961 0-1.0347 0.097062-1.9084 0.28906-2.623 0.20267-0.71467 0.48003-1.2961 0.83203-1.7441 0.352-0.448 0.76805-0.76698 1.248-0.95898 0.48-0.20267 1.0011-0.30469 1.5664-0.30469zm-16.561 0.14453c0.55467 0 1.0559 0.063406 1.5039 0.19141s0.83039 0.33009 1.1504 0.60742 0.56566 0.63493 0.73633 1.0723c0.18133 0.43733 0.27344 0.96532 0.27344 1.584 0 0.768-0.15055 1.393-0.44922 1.873-0.288 0.46933-0.68226 0.82498-1.1836 1.0703 0.128 0.21333 0.28847 0.50753 0.48047 0.88086 0.20267 0.36267 0.40476 0.7688 0.60742 1.2168 0.21333 0.43733 0.41542 0.89004 0.60742 1.3594 0.20267 0.46933 0.37305 0.91708 0.51172 1.3438h-1.4395c-0.11733-0.32-0.26593-0.68256-0.44727-1.0879-0.17067-0.40533-0.35292-0.80455-0.54492-1.1992-0.192-0.40533-0.38417-0.78968-0.57617-1.1523-0.192-0.37333-0.36239-0.68931-0.51172-0.94531-0.17067 0.021336-0.34601 0.038162-0.52734 0.048829-0.18133 0.010666-0.36359 0.015625-0.54492 0.015625h-0.39844v4.3203h-1.4082v-10.928c0.74667-0.18133 1.4668-0.27148 2.1602-0.27148zm-12.139 0.023438a5.6587 5.6587 0 0 1 0.087891 0 5.6587 5.6587 0 0 1 5.6582 5.6582 5.6587 5.6587 0 0 1-5.6582 5.6582 5.6587 5.6587 0 0 1-5.6582-5.6582 5.6587 5.6587 0 0 1 5.5703-5.6582zm18.197 0.087891h4.9746v1.2324h-3.5352v3.4395h3.1992v1.1992h-3.1992v3.9844h3.791v1.2324h-5.2305v-11.088zm-6.043 1.1523c-0.27733 0-0.53291 0.014875-0.76758 0.046875v4.3848h0.60742c0.736 0 1.3006-0.16543 1.6953-0.49609 0.39467-0.34133 0.5918-0.92281 0.5918-1.7441 0-0.416-0.05349-0.76173-0.16016-1.0391-0.096-0.288-0.23964-0.51188-0.43164-0.67188-0.18133-0.17067-0.40521-0.29447-0.67188-0.36914-0.256-0.074667-0.54328-0.11133-0.86328-0.11133z" fill="#fff" fill-opacity=".2"/>
</svg>
