<?xml version="1.0" encoding="UTF-8"?>
<svg width="32" height="21" version="1.1" viewBox="0 0 32 21" xmlns="http://www.w3.org/2000/svg">
 <path d="m5 0c-2.77 0-5 2.23-5 5v11c0 2.77 2.23 5 5 5h22c2.77 0 5-2.23 5-5v-11c0-2.77-2.23-5-5-5h-22zm7.291 4.6738c0.46933 0 0.8953 0.036662 1.2793 0.11133 0.384 0.064 0.71981 0.14423 1.0078 0.24023 0.288 0.085333 0.5287 0.17548 0.7207 0.27148s0.33068 0.17128 0.41602 0.22461l-0.7207 2.0156c-0.34133-0.18133-0.74055-0.33489-1.1992-0.46289-0.448-0.128-0.96111-0.19336-1.5371-0.19336-0.384 0-0.76143 0.065359-1.1348 0.19336-0.36267 0.128-0.68856 0.33505-0.97656 0.62305-0.27733 0.27733-0.50121 0.63989-0.67187 1.0879-0.17067 0.448-0.25586 0.99281-0.25586 1.6328 0 0.512 0.05349 0.99145 0.16016 1.4395 0.11733 0.43733 0.29764 0.81672 0.54297 1.1367 0.256 0.32 0.58686 0.57558 0.99219 0.76758 0.40533 0.18133 0.89666 0.27148 1.4727 0.27148 0.36267 0 0.68856-0.021786 0.97656-0.064453s0.54358-0.089245 0.76758-0.14258c0.224-0.064 0.42113-0.13432 0.5918-0.20898 0.17067-0.074667 0.32422-0.14303 0.46289-0.20703l0.68945 2c-0.352 0.21333-0.84828 0.4055-1.4883 0.57617s-1.3819 0.25586-2.2246 0.25586c-1.8027 0-3.1776-0.50124-4.127-1.5039-0.93867-1.0027-1.4082-2.4281-1.4082-4.2734 0-0.91733 0.14364-1.7326 0.43164-2.4473 0.288-0.72533 0.68226-1.3336 1.1836-1.8242 0.50133-0.50133 1.0996-0.88072 1.793-1.1367 0.69333-0.256 1.4452-0.38281 2.2559-0.38281zm9.9688 0c0.46933 0 0.8953 0.036662 1.2793 0.11133 0.384 0.064 0.71981 0.14423 1.0078 0.24023 0.288 0.085333 0.5287 0.17548 0.7207 0.27148s0.33068 0.17128 0.41602 0.22461l-0.7207 2.0156c-0.34133-0.18133-0.74055-0.33489-1.1992-0.46289-0.448-0.128-0.96111-0.19336-1.5371-0.19336-0.384 0-0.76143 0.065359-1.1348 0.19336-0.36267 0.128-0.68856 0.33505-0.97656 0.62305-0.27733 0.27733-0.50121 0.63989-0.67188 1.0879-0.17067 0.448-0.25586 0.99281-0.25586 1.6328 0 0.512 0.05349 0.99145 0.16016 1.4395 0.11733 0.43733 0.29764 0.81672 0.54297 1.1367 0.256 0.32 0.58685 0.57558 0.99219 0.76758 0.40533 0.18133 0.89666 0.27148 1.4727 0.27148 0.36267 0 0.68856-0.021786 0.97656-0.064453s0.54358-0.089245 0.76758-0.14258c0.224-0.064 0.42113-0.13432 0.5918-0.20898 0.17067-0.074667 0.32422-0.14303 0.46289-0.20703l0.68945 2c-0.352 0.21333-0.84828 0.4055-1.4883 0.57617s-1.3819 0.25586-2.2246 0.25586c-1.8027 0-3.1776-0.50124-4.127-1.5039-0.93867-1.0027-1.4082-2.4281-1.4082-4.2734 0-0.91733 0.14364-1.7326 0.43164-2.4473 0.288-0.72533 0.68226-1.3336 1.1836-1.8242 0.50133-0.50133 1.0996-0.88072 1.793-1.1367 0.69333-0.256 1.4452-0.38281 2.2559-0.38281z" fill="#fff" fill-opacity=".2"/>
</svg>
