<?xml version="1.0" encoding="UTF-8"?>
<svg width="104" height="21" version="1.1" viewBox="0 0 104 21" xmlns="http://www.w3.org/2000/svg">
 <path id="image" d="m5 0c-2.77 0-5 2.23-5 5v11c0 2.77 2.23 5 5 5h94c2.77 0 5-2.23 5-5v-11c0-2.77-2.23-5-5-5h-94zm28.902 4.5078c0.46933 0 0.8953 0.036662 1.2793 0.11133 0.384 0.064 0.71981 0.14423 1.0078 0.24023 0.288 0.085333 0.5287 0.17744 0.7207 0.27344s0.33068 0.16932 0.41602 0.22266l-0.7207 2.0156c-0.34133-0.18133-0.74055-0.33489-1.1992-0.46289-0.448-0.128-0.96111-0.19141-1.5371-0.19141-0.384 0-0.76143 0.063406-1.1348 0.19141-0.36267 0.128-0.68856 0.33505-0.97656 0.62305-0.27733 0.27733-0.50121 0.63989-0.67187 1.0879-0.17067 0.448-0.25586 0.99281-0.25586 1.6328 0 0.512 0.05349 0.99145 0.16016 1.4395 0.11733 0.43733 0.29764 0.81672 0.54297 1.1367 0.256 0.32 0.58685 0.57558 0.99219 0.76758 0.40533 0.18133 0.89666 0.27148 1.4727 0.27148 0.36267 0 0.68856-0.019836 0.97656-0.0625 0.288-0.042667 0.54358-0.091198 0.76758-0.14453 0.224-0.064 0.42113-0.13432 0.5918-0.20898 0.17067-0.074667 0.32618-0.14303 0.46484-0.20703l0.6875 2c-0.352 0.21333-0.84828 0.40551-1.4883 0.57617-0.64 0.17067-1.3819 0.25586-2.2246 0.25586-1.8027 0-3.1776-0.50124-4.127-1.5039-0.93867-1.0027-1.4082-2.4262-1.4082-4.2715 0-0.91733 0.14364-1.7346 0.43164-2.4492 0.288-0.72533 0.68226-1.3336 1.1836-1.8242 0.50133-0.50133 1.0996-0.87877 1.793-1.1348 0.69333-0.256 1.4452-0.38477 2.2559-0.38477zm51.467 0c0.52267 0 0.9922 0.036662 1.4082 0.11133 0.42667 0.064 0.78922 0.14423 1.0879 0.24023 0.30933 0.085333 0.55995 0.17744 0.75195 0.27344 0.20267 0.096 0.34631 0.16932 0.43164 0.22266l-0.71875 2c-0.34133-0.18133-0.73559-0.33489-1.1836-0.46289-0.43733-0.13867-0.91874-0.20898-1.4414-0.20898-1.1627 0-2.0047 0.3259-2.5273 0.97656-0.512 0.64-0.76758 1.5206-0.76758 2.6406 0 0.544 0.063406 1.0383 0.19141 1.4863 0.128 0.43733 0.32017 0.81672 0.57617 1.1367s0.57498 0.57062 0.95898 0.75195c0.384 0.17067 0.8337 0.25586 1.3457 0.25586 0.27733 0 0.51112-0.004959 0.70312-0.015625 0.20267-0.010667 0.37801-0.032452 0.52734-0.064454v-3.8555h2.4961v5.4883c-0.29867 0.11733-0.77812 0.23919-1.4395 0.36719-0.66133 0.13867-1.4766 0.20898-2.4473 0.20898-0.832 0-1.5908-0.12877-2.2734-0.38477-0.672-0.256-1.2466-0.62847-1.7266-1.1191-0.48-0.49067-0.85443-1.0939-1.1211-1.8086-0.256-0.71467-0.38281-1.5299-0.38281-2.4473 0-0.928 0.14364-1.7502 0.43164-2.4648s0.68226-1.3179 1.1836-1.8086c0.50133-0.50133 1.0878-0.87877 1.7598-1.1348 0.68267-0.256 1.4078-0.38477 2.1758-0.38477zm-66.426 0.011719c0.704 0 1.3508 0.05349 1.9375 0.16016 0.59733 0.096 1.1085 0.26639 1.5352 0.51172 0.42667 0.24533 0.75752 0.57123 0.99219 0.97656 0.24533 0.39467 0.36719 0.88599 0.36719 1.4727 0 0.88533-0.42596 1.5837-1.2793 2.0957 0.704 0.26667 1.1835 0.62922 1.4395 1.0879 0.256 0.45867 0.38476 0.97673 0.38476 1.5527 1e-6 1.1627-0.42792 2.0364-1.2812 2.623-0.84267 0.58667-2.1007 0.88086-3.7754 0.88086-0.608 0-1.2162-0.021786-1.8242-0.064453-0.59733-0.032-1.2204-0.11719-1.8711-0.25586v-10.752c0.512-0.096 1.0717-0.16632 1.6797-0.20898 0.608-0.053333 1.1726-0.080078 1.6953-0.080078zm25.48 0.11719c0.94933 0 1.8082 0.10503 2.5762 0.31836 0.77867 0.21333 1.4453 0.5511 2 1.0098 0.55467 0.45867 0.98063 1.0451 1.2793 1.7598 0.29867 0.71467 0.44727 1.5735 0.44726 2.5762 1e-6 0.96-0.1486 1.7971-0.44726 2.5117s-0.72463 1.3061-1.2793 1.7754c-0.544 0.46933-1.2107 0.82197-2 1.0566-0.78933 0.23467-1.6749 0.35156-2.6562 0.35156-0.448 0-0.97103-0.021787-1.5684-0.064453-0.59733-0.032-1.1838-0.10728-1.7598-0.22461v-10.799c0.576-0.10667 1.1723-0.17698 1.791-0.20898 0.62933-0.042667 1.1692-0.0625 1.6172-0.0625zm-38.988 0.12695h2.3848c0.36267 0.768 0.71831 1.5585 1.0703 2.3691 0.352 0.8 0.70464 1.647 1.0566 2.543 0.36267 0.896 0.73018 1.8499 1.1035 2.8633 0.37333 1.0133 0.76955 2.1178 1.1855 3.3125h-2.6738c-0.11733-0.384-0.2491-0.77826-0.39844-1.1836l-0.41602-1.2168h-4.3203c-0.13867 0.40533-0.28231 0.81146-0.43164 1.2168-0.13867 0.40533-0.26743 0.79959-0.38477 1.1836h-2.5918c0.416-1.1947 0.81026-2.2992 1.1836-3.3125 0.37333-1.0133 0.73589-1.9673 1.0879-2.8633 0.36267-0.896 0.71531-1.743 1.0566-2.543 0.352-0.81067 0.71456-1.6011 1.0879-2.3691zm49.627 0h7.4883v2.0957h-4.9922v2.1758h4.4316v2.0488h-4.4316v2.6719h5.3594v2.0957h-7.8555v-11.088zm13.25 0h7.4258v2.0957h-4.9297v2.3203h4.3848v2.0957h-4.3848v4.5762h-2.4961v-11.088zm24.719 0h2.4961v4.2402h4.1934v-4.2402h2.4961v11.088h-2.4961v-4.7031h-4.1934v4.7031h-2.4961v-11.088zm-73.688 1.7715c-0.21333 0-0.44217 0.0069115-0.6875 0.017578-0.24533 0-0.46425 0.0099166-0.65625 0.03125v2.416h1.2168c0.768 0 1.3158-0.095109 1.6465-0.28711 0.33067-0.20267 0.49609-0.5236 0.49609-0.96094 0-0.448-0.17038-0.76203-0.51172-0.94336-0.34133-0.18133-0.84257-0.27344-1.5039-0.27344zm25.207 0.22852c-0.17067 0-0.34601 0.0049583-0.52734 0.015625-0.18133 0-0.35172 0.01187-0.51172 0.033203v7.0078c0.11733 0.010667 0.25106 0.020586 0.40039 0.03125h0.55859c1.248 0 2.1722-0.31403 2.7695-0.94336 0.608-0.62933 0.91211-1.4981 0.91211-2.6074 0-1.1627-0.28924-2.0433-0.86524-2.6406-0.576-0.59733-1.4883-0.89648-2.7363-0.89648zm-37.979 0.51172c-0.053333 0.16-0.13357 0.37892-0.24023 0.65625-0.10667 0.27733-0.23047 0.59827-0.36914 0.96094-0.13867 0.36267-0.29222 0.76188-0.46289 1.1992-0.16 0.43733-0.32543 0.89695-0.49609 1.377h3.1523c-0.17067-0.48-0.33609-0.93962-0.49609-1.377-0.16-0.43733-0.31551-0.83655-0.46484-1.1992-0.13867-0.36267-0.26052-0.6836-0.36719-0.96094-0.10667-0.27733-0.19186-0.49625-0.25586-0.65625zm11.428 3.6289v2.8633c0.18133 0.021333 0.37846 0.038162 0.5918 0.048828 0.21333 0.010667 0.44908 0.015625 0.70508 0.015625 0.74667 0 1.348-0.10698 1.8066-0.32031 0.45867-0.21333 0.68945-0.60759 0.68945-1.1836 0-0.512-0.19217-0.87456-0.57617-1.0879-0.384-0.224-0.93377-0.33594-1.6484-0.33594h-1.5684z" fill="#fff" fill-opacity=".2" stroke-linecap="round" stroke-opacity=".50896"/>
</svg>
