<?xml version="1.0" encoding="UTF-8"?>
<svg width="104" height="21" version="1.1" viewBox="0 0 104 21" xmlns="http://www.w3.org/2000/svg">
 <g id="image" transform="translate(.32086)">
  <g stroke-linecap="round" stroke-opacity=".50896">
   <rect x="12.679" width="13" height="21" fill="#9c27b0"/>
   <rect x="25.679" width="13" height="21" fill="#3f51b5"/>
   <rect x="38.679" width="13" height="21" fill="#03a9f4"/>
   <rect x="64.679" width="13" height="21" fill="#4caf50"/>
   <rect x="77.679" width="13" height="21" fill="#ffc107"/>
   <rect x="51.679" width="13" height="21" fill="#009688"/>
  </g>
  <path transform="translate(-.32086)" d="m5 0c-2.77 0-5 2.23-5 5v11c0 2.77 2.23 5 5 5h8v-21h-8z" fill="#f44336"/>
  <path transform="translate(-.32086)" d="m90.996 0v21h8.0039c2.7436 0 4.9541-2.1887 4.9961-4.9219v-11.156c-0.042-2.7332-2.2525-4.9219-4.9961-4.9219h-8.0039z" fill="#ff5722"/>
  <g fill="#ffffff" font-family="Ubuntu" font-size="16px" font-weight="bold" text-anchor="middle">
   <text transform="translate(-17.117,-2.4613)" x="23.421211" y="18.313173" dominant-baseline="auto" filter="url(#filter105)" opacity=".5" stop-color="#000000" text-align="center" style="line-height:125%" xml:space="preserve"><tspan x="23.421211" y="18.313173">A</tspan></text>
   <text transform="translate(-4.1171,-2.4613)" x="23.421211" y="18.313173" dominant-baseline="auto" filter="url(#filter105)" opacity=".5" stop-color="#000000" text-align="center" style="line-height:125%" xml:space="preserve"><tspan x="23.421211" y="18.313173">B</tspan></text>
   <text transform="translate(8.8833,-2.4613)" x="23.421211" y="18.313173" dominant-baseline="auto" filter="url(#filter105)" opacity=".5" stop-color="#000000" text-align="center" style="line-height:125%" xml:space="preserve"><tspan x="23.421211" y="18.313173">C</tspan></text>
   <text transform="translate(21.884,-2.4613)" x="23.421211" y="18.313173" dominant-baseline="auto" filter="url(#filter105)" opacity=".5" stop-color="#000000" text-align="center" style="line-height:125%" xml:space="preserve"><tspan x="23.421211" y="18.313173">D</tspan></text>
   <text transform="translate(34.884,-2.4613)" x="23.421211" y="18.313173" dominant-baseline="auto" filter="url(#filter105)" opacity=".5" stop-color="#000000" text-align="center" style="line-height:125%" xml:space="preserve"><tspan x="23.421211" y="18.313173">E</tspan></text>
   <text transform="translate(47.885,-2.4613)" x="23.421211" y="18.313173" dominant-baseline="auto" filter="url(#filter105)" opacity=".5" stop-color="#000000" text-align="center" style="line-height:125%" xml:space="preserve"><tspan x="23.421211" y="18.313173">F</tspan></text>
   <text transform="translate(60.885,-2.4613)" x="23.421211" y="18.313173" dominant-baseline="auto" filter="url(#filter105)" opacity=".5" stop-color="#000000" text-align="center" style="line-height:125%" xml:space="preserve"><tspan x="23.421211" y="18.313173">G</tspan></text>
   <text transform="translate(73.885,-2.4613)" x="23.421211" y="18.313173" dominant-baseline="auto" filter="url(#filter105)" opacity=".5" stop-color="#000000" text-align="center" style="line-height:125%" xml:space="preserve"><tspan x="23.421211" y="18.313173">H</tspan></text>
  </g>
 </g>
</svg>
