<?xml version="1.0" encoding="UTF-8"?>
<svg width="32" height="21" version="1.1" viewBox="0 0 32 21" xmlns="http://www.w3.org/2000/svg">
 <path d="m5 0c-2.77 0-5 2.23-5 5v11c0 2.77 2.23 5 5 5h22c2.77 0 5-2.23 5-5v-11c0-2.77-2.23-5-5-5h-22zm0.23633 4.9297h6.3691v1.2324h-2.4648v9.8555h-1.4395v-9.8555h-2.4648v-1.2324zm7.2539 0h1.4727l1.9199 4.0645 1.9043-4.0645h1.4395l-2.5293 5.1523c0.224 0.48 0.45974 0.98124 0.70508 1.5039 0.256 0.512 0.50166 1.0281 0.73633 1.5508 0.24533 0.512 0.47417 1.0132 0.6875 1.5039s0.40055 0.95029 0.56055 1.377h-1.4238c-0.11733-0.32-0.25602-0.66573-0.41602-1.0391-0.14933-0.384-0.31972-0.7733-0.51172-1.168-0.18133-0.39467-0.3735-0.79584-0.57617-1.2012-0.192-0.416-0.38417-0.81522-0.57617-1.1992-0.192 0.384-0.38913 0.78322-0.5918 1.1992-0.20267 0.40533-0.39484 0.8065-0.57617 1.2012-0.18133 0.39467-0.35172 0.78397-0.51172 1.168-0.14933 0.37333-0.2781 0.71906-0.38477 1.0391h-1.3926c0.14933-0.416 0.33159-0.86375 0.54492-1.3438s0.43721-0.97132 0.67188-1.4727l0.70312-1.5352c0.24533-0.512 0.48108-1.0033 0.70508-1.4727l-2.5605-5.2637zm7.6211 0h6.3691v1.2324h-2.4648v9.8555h-1.4395v-9.8555h-2.4648v-1.2324z" fill="#fff" fill-opacity=".2"/>
</svg>
